<?xml version="1.0" standalone="no"?>
<!DOCTYPE svg PUBLIC "-//W3C//DTD SVG 20010904//EN"
 "http://www.w3.org/TR/2001/REC-SVG-20010904/DTD/svg10.dtd">
<svg version="1.0" xmlns="http://www.w3.org/2000/svg"
 width="386.000000pt" height="386.000000pt" viewBox="0 0 386.000000 386.000000"
 preserveAspectRatio="xMidYMid meet">
<metadata>
Created by potrace 1.16, written by Peter Selinger 2001-2019
</metadata>
<g transform="translate(0.000000,386.000000) scale(0.100000,-0.100000)"
fill="#000000" stroke="none">
<path d="M1795 3180 c-139 -29 -242 -87 -350 -195 -129 -130 -195 -284 -195
-457 l0 -78 680 0 680 0 0 78 c0 173 -66 327 -195 457 -142 142 -264 195 -460
201 -66 2 -138 -1 -160 -6z m-45 -365 c46 -24 70 -62 70 -112 0 -76 -50 -123
-131 -123 -33 0 -47 6 -74 33 -64 64 -51 160 26 199 42 22 71 23 109 3z m484
-8 c13 -9 31 -32 40 -52 36 -76 -12 -163 -95 -172 -83 -9 -139 41 -139 126 0
42 35 95 74 112 28 12 91 4 120 -14z"/>
<path d="M422 2918 c-8 -8 -12 -48 -12 -113 l0 -101 54 -53 c35 -34 56 -65 60
-85 8 -43 59 -102 101 -117 l33 -12 4 -181 c3 -165 5 -185 27 -228 52 -106
150 -181 258 -196 l48 -7 5 -98 c5 -93 7 -100 33 -123 22 -18 40 -24 78 -24
l49 0 0 275 0 275 -51 0 c-43 0 -55 -5 -80 -29 -27 -28 -29 -34 -29 -110 l0
-81 -27 6 c-69 15 -99 29 -141 68 -74 67 -82 95 -82 287 0 166 0 167 23 173
33 8 95 73 103 109 3 16 32 58 65 93 l59 63 0 91 c0 101 -10 130 -43 130 -39
0 -47 -19 -47 -105 0 -69 -3 -85 -20 -100 -19 -17 -21 -17 -52 14 -63 62 -138
76 -214 42 -22 -10 -50 -31 -62 -46 -22 -27 -23 -27 -42 -10 -17 15 -20 31
-20 92 0 41 -5 83 -10 94 -12 21 -50 25 -68 7z"/>
<path d="M2870 2911 c-5 -11 -10 -61 -10 -111 l0 -91 60 -64 c33 -35 60 -73
60 -82 0 -32 48 -90 89 -110 l40 -18 1 -165 c0 -139 -3 -171 -19 -205 -34 -76
-110 -132 -198 -149 l-33 -5 0 80 c0 76 -2 82 -29 110 -25 24 -37 29 -80 29
l-51 0 0 -275 0 -275 51 0 c43 0 55 5 80 29 28 28 29 33 29 125 l0 96 35 0
c97 0 219 84 270 187 29 56 30 64 35 236 l5 178 40 22 c43 24 83 76 92 118 3
15 29 51 59 80 l54 53 0 101 c0 107 -7 125 -47 125 -32 0 -43 -28 -43 -115 0
-53 -4 -81 -14 -91 -20 -19 -25 -18 -49 12 -11 15 -39 35 -61 45 -77 35 -156
20 -214 -42 -30 -33 -31 -33 -51 -15 -18 16 -21 31 -21 101 0 50 -5 86 -12 93
-18 18 -56 14 -68 -7z"/>
<path d="M1252 1828 l3 -533 29 -57 c39 -78 104 -141 184 -180 l67 -33 395 0
395 0 58 27 c80 38 158 115 193 191 l29 62 3 528 3 527 -681 0 -681 0 3 -532z
m938 -16 c0 -230 -10 -280 -68 -344 -134 -149 -380 -96 -436 93 -12 40 -16
101 -16 251 l0 198 260 0 260 0 0 -198z"/>
<path d="M1680 912 c0 -10 7 -42 15 -70 39 -131 179 -201 319 -160 60 18 131
92 150 159 29 97 50 89 -234 89 -235 0 -250 -1 -250 -18z"/>
</g>
</svg>
